<svg id="block" xmlns="http://www.w3.org/2000/svg" viewBox="0 0 415.78 211.08"><defs><style>.cls-1{fill:#1919a6;}</style></defs><polygon class="cls-1" points="14.4 2.42 16.8 2.42 19.2 2.42 21.61 2.42 24.01 2.42 26.41 2.42 28.81 2.42 31.21 2.42 33.61 2.42 36.01 2.42 38.41 2.42 40.81 2.42 43.21 2.42 45.61 2.42 48.01 2.42 50.41 2.42 52.81 2.42 55.22 2.42 57.61 2.42 60.01 2.42 62.41 2.42 64.81 2.42 67.21 2.42 69.61 2.42 72.02 2.42 74.42 2.42 76.82 2.42 101.36 2.42 103.77 2.42 106.17 2.42 108.57 2.42 108.57 2.4 110.97 2.4 113.37 2.4 338.97 2.41 341.37 2.41 343.77 2.41 346.17 2.41 348.57 2.41 350.97 2.41 353.37 2.41 355.77 2.41 358.17 2.41 360.57 2.41 362.97 2.41 365.37 2.41 367.77 2.41 370.17 2.41 372.57 2.41 374.97 2.41 377.37 2.41 379.77 2.41 382.18 2.41 384.58 2.41 386.98 2.41 389.38 2.41 391.78 2.41 394.18 2.41 396.58 2.41 398.98 2.41 401.38 2.41 403.78 2.41 406.18 2.41 406.18 0.01 403.78 0.01 401.38 0.01 398.98 0.01 396.58 0.01 394.18 0.01 391.78 0.01 389.38 0.01 386.98 0.01 384.58 0.01 382.18 0.01 379.77 0.01 377.37 0.01 374.97 0.01 372.57 0.01 370.17 0.01 367.77 0.01 365.37 0.01 362.97 0.01 360.57 0.01 358.17 0.01 355.77 0.01 353.37 0.01 350.97 0.01 348.57 0.01 346.17 0.01 343.77 0.01 341.37 0.01 338.97 0.01 113.37 0 110.97 0 108.57 0 106.17 0 106.17 0.02 103.77 0.02 101.36 0.02 76.82 0.02 74.42 0.02 72.02 0.02 69.61 0.02 67.21 0.02 64.81 0.02 62.41 0.02 60.01 0.02 57.61 0.02 55.22 0.02 52.81 0.02 50.41 0.02 48.01 0.02 45.61 0.02 43.21 0.02 40.81 0.02 38.41 0.02 36.01 0.02 33.61 0.02 31.21 0.02 28.81 0.02 26.41 0.02 24.01 0.02 21.61 0.02 19.2 0.02 16.8 0.02 14.4 0.02 12 0.02 9.6 0.02 9.6 2.42 12 2.42 14.4 2.42"/><polygon class="cls-1" points="16.8 9.62 19.2 9.62 21.61 9.62 24.01 9.62 26.41 9.62 28.81 9.62 31.21 9.62 33.61 9.62 36.01 9.62 38.41 9.62 40.81 9.62 43.21 9.62 45.61 9.62 48.01 9.62 50.41 9.62 52.81 9.62 55.22 9.62 57.61 9.62 60.01 9.62 62.41 9.62 64.81 9.62 64.81 9.61 67.21 9.61 69.61 9.61 358.17 9.62 360.57 9.62 362.97 9.62 365.37 9.62 367.77 9.62 370.17 9.62 372.57 9.62 374.97 9.62 377.37 9.62 379.77 9.62 382.18 9.62 384.58 9.62 386.98 9.62 389.38 9.62 391.78 9.62 394.18 9.62 396.58 9.62 398.98 9.62 401.38 9.62 403.78 9.62 403.78 7.22 401.38 7.22 398.98 7.22 396.58 7.22 394.18 7.22 391.78 7.22 389.38 7.22 386.98 7.22 384.58 7.22 382.18 7.22 379.77 7.22 377.37 7.22 374.97 7.22 372.57 7.22 370.17 7.22 367.77 7.22 365.37 7.22 362.97 7.22 360.57 7.22 358.17 7.22 69.61 7.21 67.21 7.21 64.81 7.21 64.81 7.22 62.41 7.22 60.01 7.22 57.61 7.22 55.22 7.22 52.81 7.22 50.41 7.22 48.01 7.22 45.61 7.22 43.21 7.22 40.81 7.22 38.41 7.22 36.01 7.22 33.61 7.22 31.21 7.22 28.81 7.22 26.41 7.22 24.01 7.22 21.61 7.22 19.2 7.22 16.8 7.22 14.4 7.22 12 7.22 12 9.62 14.4 9.62 16.8 9.62"/><rect class="cls-1" x="9.6" y="9.62" width="2.4" height="2.4"/><polygon class="cls-1" points="9.6 4.82 9.6 2.42 7.2 2.42 4.8 2.42 4.8 4.82 7.2 4.82 9.6 4.82"/><polygon class="cls-1" points="4.8 7.22 4.8 4.82 2.4 4.82 2.4 7.22 2.4 9.62 4.8 9.62 4.8 7.22"/><polygon class="cls-1" points="401.38 208.68 398.98 208.68 396.58 208.68 394.18 208.68 391.78 208.68 389.38 208.68 386.98 208.68 384.58 208.68 382.18 208.68 379.77 208.68 377.37 208.68 374.97 208.68 372.57 208.68 370.17 208.68 367.77 208.68 365.37 208.68 362.97 208.68 360.57 208.68 358.17 208.68 355.77 208.68 353.37 208.68 350.97 208.68 348.57 208.68 346.17 208.68 343.77 208.68 341.37 208.68 338.97 208.68 113.37 208.67 110.97 208.67 108.57 208.67 86.42 208.67 84.61 208.67 84.02 208.67 81.62 208.67 79.22 208.67 76.82 208.67 74.42 208.67 72.02 208.67 69.61 208.67 67.21 208.67 64.81 208.67 62.41 208.67 60.01 208.67 57.61 208.67 55.22 208.67 52.81 208.67 50.41 208.67 48.01 208.67 45.61 208.67 43.21 208.67 40.81 208.67 38.41 208.67 36.01 208.67 33.61 208.67 31.21 208.67 28.81 208.67 26.41 208.67 24.01 208.67 21.61 208.67 19.2 208.67 16.8 208.67 14.4 208.67 12 208.67 9.6 208.67 9.6 211.07 12 211.07 14.4 211.07 16.8 211.07 19.2 211.07 21.61 211.07 24.01 211.07 26.41 211.07 28.81 211.07 31.21 211.07 33.61 211.07 36.01 211.07 38.41 211.07 40.81 211.07 43.21 211.07 45.61 211.07 48.01 211.07 50.41 211.07 52.81 211.07 55.22 211.07 57.61 211.07 60.01 211.07 62.41 211.07 64.81 211.07 67.21 211.07 69.61 211.07 72.02 211.07 74.42 211.07 76.82 211.07 79.22 211.07 81.62 211.07 84.02 211.07 84.61 211.07 86.42 211.07 108.57 211.07 110.97 211.07 113.37 211.07 338.97 211.08 341.37 211.08 343.77 211.08 346.17 211.08 348.57 211.08 350.97 211.08 353.37 211.08 355.77 211.08 358.17 211.08 360.57 211.08 362.97 211.08 365.37 211.08 367.77 211.08 370.17 211.08 372.57 211.08 374.97 211.08 377.37 211.08 379.77 211.08 382.18 211.08 384.58 211.08 386.98 211.08 389.38 211.08 391.78 211.08 394.18 211.08 396.58 211.08 398.98 211.08 401.38 211.08 403.78 211.08 406.18 211.08 406.18 208.68 403.78 208.68 401.38 208.68"/><polygon class="cls-1" points="398.98 201.47 396.58 201.47 394.18 201.47 391.78 201.47 389.38 201.47 386.98 201.47 384.58 201.47 382.18 201.47 379.77 201.47 377.37 201.47 374.97 201.47 372.57 201.47 370.17 201.47 367.77 201.47 365.37 201.47 362.97 201.47 67.96 201.47 65.56 201.47 64.81 201.47 63.16 201.47 62.41 201.47 60.76 201.47 60.01 201.47 58.36 201.47 57.61 201.47 55.22 201.47 52.81 201.47 50.41 201.47 48.01 201.47 45.61 201.47 43.21 201.47 40.81 201.47 38.41 201.47 36.01 201.47 33.61 201.47 31.21 201.47 28.81 201.47 26.41 201.47 24.01 201.47 21.61 201.47 19.2 201.47 16.8 201.47 14.4 201.47 12 201.47 12 203.87 14.4 203.87 16.8 203.87 19.2 203.87 21.61 203.87 24.01 203.87 26.41 203.87 28.81 203.87 31.21 203.87 33.61 203.87 36.01 203.87 38.41 203.87 40.81 203.87 43.21 203.87 45.61 203.87 48.01 203.87 50.41 203.87 52.81 203.87 55.22 203.87 57.61 203.87 58.36 203.87 60.01 203.87 60.76 203.87 62.41 203.87 63.16 203.87 64.81 203.87 65.56 203.87 67.96 203.87 362.97 203.88 365.37 203.88 367.77 203.88 370.17 203.88 372.57 203.88 374.97 203.88 377.37 203.88 379.77 203.88 382.18 203.88 384.58 203.88 386.98 203.88 389.38 203.88 391.78 203.88 394.18 203.88 396.58 203.88 398.98 203.88 401.38 203.88 403.78 203.88 403.78 201.47 401.38 201.47 398.98 201.47"/><rect class="cls-1" x="403.78" y="199.07" width="2.4" height="2.4"/><polygon class="cls-1" points="406.18 206.28 406.18 208.68 408.58 208.68 410.98 208.68 410.98 206.28 408.58 206.28 406.18 206.28"/><polygon class="cls-1" points="410.98 203.88 410.98 206.28 413.38 206.28 413.38 203.88 413.38 201.47 410.98 201.47 410.98 203.88"/><rect class="cls-1" x="403.78" y="9.62" width="2.4" height="2.4"/><polygon class="cls-1" points="406.18 14.05 406.18 16.45 406.18 18.86 406.18 21.26 406.18 23.66 406.18 26.06 406.18 28.46 406.18 30.86 406.18 177.47 406.18 179.87 406.18 180.85 406.18 182.27 406.18 184.67 406.18 187.07 406.18 189.47 406.18 191.87 406.18 194.27 406.18 196.67 406.18 199.07 408.58 199.07 408.58 196.67 408.58 194.27 408.58 191.87 408.58 189.47 408.58 187.07 408.58 184.67 408.58 182.27 408.58 180.85 408.58 179.87 408.58 177.47 408.58 30.86 408.58 28.46 408.58 26.06 408.58 23.66 408.58 21.26 408.58 18.86 408.58 16.45 408.58 14.05 408.58 12.02 406.18 12.02 406.18 14.05"/><polygon class="cls-1" points="408.58 4.81 410.98 4.81 410.98 2.41 408.58 2.41 406.18 2.41 406.18 4.81 408.58 4.81"/><polygon class="cls-1" points="410.98 9.61 413.38 9.61 413.38 7.21 413.38 4.81 410.98 4.81 410.98 7.21 410.98 9.61"/><polygon class="cls-1" points="413.38 9.61 413.38 12.01 413.38 14.41 413.38 16.81 413.38 19.21 413.38 21.61 413.38 24.02 413.38 26.06 413.38 28.46 413.38 30.86 413.38 33.26 413.38 35.66 413.38 38.06 413.38 40.46 413.38 70.51 413.38 167.87 413.38 170.27 413.38 172.67 413.38 175.07 413.38 177.47 413.38 179.87 413.38 182.27 413.38 184.67 413.38 187.07 413.38 189.47 413.38 191.87 413.38 194.27 413.38 196.67 413.38 199.07 413.38 201.47 415.78 201.47 415.78 199.07 415.78 196.67 415.78 194.27 415.78 191.87 415.78 189.47 415.78 187.07 415.78 184.67 415.78 182.27 415.78 179.87 415.78 177.47 415.78 175.07 415.78 172.67 415.78 170.27 415.78 167.87 415.78 70.51 415.78 40.46 415.78 38.06 415.78 35.66 415.78 33.26 415.78 30.86 415.78 28.46 415.78 26.06 415.78 24.02 415.78 21.61 415.78 19.21 415.78 16.81 415.78 14.41 415.78 12.01 415.78 9.61 413.38 9.61"/><rect class="cls-1" x="9.6" y="199.06" width="2.4" height="2.4"/><polygon class="cls-1" points="9.6 194.26 9.6 191.86 9.6 189.46 9.6 187.06 9.6 184.66 9.6 182.26 9.6 180.84 9.6 179.86 9.6 177.46 9.6 31.23 9.6 28.83 9.6 26.43 9.6 24.02 9.6 21.62 9.6 19.22 9.6 16.82 9.6 14.42 9.6 12.02 7.2 12.02 7.2 14.42 7.2 16.82 7.2 19.22 7.2 21.62 7.2 24.02 7.2 26.43 7.2 28.83 7.2 31.23 7.2 177.46 7.2 179.86 7.2 180.84 7.2 182.26 7.2 184.66 7.2 187.06 7.2 189.46 7.2 191.86 7.2 194.26 7.2 196.66 7.2 199.06 9.6 199.06 9.6 196.66 9.6 194.26"/><polygon class="cls-1" points="7.2 206.27 4.8 206.27 4.8 208.67 7.2 208.67 9.6 208.67 9.6 206.27 7.2 206.27"/><polygon class="cls-1" points="4.8 201.47 2.4 201.47 2.4 203.87 2.4 206.27 4.8 206.27 4.8 203.87 4.8 201.47"/><polygon class="cls-1" points="2.4 196.66 2.4 194.26 2.4 191.86 2.4 189.46 2.4 187.06 2.4 184.66 2.4 182.26 2.4 179.86 2.4 177.46 2.4 175.06 2.4 172.66 2.4 170.26 2.4 167.86 2.4 38.43 2.4 36.03 2.4 33.63 2.4 31.23 2.4 28.83 2.4 26.43 2.4 24.02 2.4 21.62 2.4 19.22 2.4 16.82 2.4 14.42 2.4 12.02 2.4 9.62 0 9.62 0 12.02 0 14.42 0 16.82 0 19.22 0 21.62 0 24.02 0 26.43 0 28.83 0 31.23 0 33.63 0 36.03 0 38.43 0 167.86 0 170.26 0 172.66 0 175.06 0 177.46 0 179.86 0 182.26 0 184.66 0 187.06 0 189.46 0 191.86 0 194.26 0 196.66 0 199.06 0 201.47 2.4 201.47 2.4 199.06 2.4 196.66"/></svg>