<svg id="Layer_1" data-name="Layer 1" xmlns="http://www.w3.org/2000/svg" viewBox="0 0 515.27 515.27"><defs><style>.cls-1{fill:#0000fe;}.cls-2{fill:#fff;}.cls-3{fill:aqua;}</style></defs><polygon class="cls-1" points="368.05 110.41 331.25 110.41 331.25 147.22 331.25 184.03 368.05 184.03 404.86 184.03 404.86 147.22 404.86 110.41 368.05 110.41"/><polygon class="cls-1" points="147.21 110.41 110.41 110.41 110.41 147.22 110.41 184.03 147.21 184.03 184.02 184.03 184.02 147.22 184.02 110.41 147.21 110.41"/><polygon class="cls-2" points="404.86 147.22 404.86 184.03 368.05 184.03 331.25 184.03 331.25 147.22 294.44 147.22 294.44 184.03 294.44 220.83 294.44 257.63 331.25 257.63 331.25 294.44 368.05 294.44 404.86 294.44 404.86 257.63 441.67 257.63 441.67 220.83 441.67 184.03 441.67 147.22 404.86 147.22"/><polygon class="cls-2" points="184.02 184.03 147.21 184.03 110.41 184.03 110.41 147.22 73.61 147.22 73.61 184.03 73.61 220.83 73.61 257.63 110.41 257.63 110.41 294.44 147.21 294.44 184.02 294.44 184.02 257.63 220.83 257.63 220.83 220.83 220.83 184.03 220.83 147.22 184.02 147.22 184.02 184.03"/><path class="cls-3" d="M1180.83,503.19V392.77H1144V356h-36.81v-36.8h-73.61V282.36H886.38v36.81H812.77V356H776v36.8H739.17V503.19h-36.8V797.63h36.8v-36.8H776V724h36.79v36.8h36.81v36.8H923.2V724h73.61v73.6h73.61v-36.8h36.8V724H1144v36.8h36.8v36.8h36.81V503.19ZM1144,429.58V540h-36.81v36.8h-73.61V540h-36.8V429.58h36.8V392.77h73.61v36.81ZM776,466.39V429.58h36.79V392.77h73.61v36.81H923.2V540H886.38v36.8H812.77V540H776V466.39Z" transform="translate(-702.37 -282.36)"/></svg>