<svg id="Layer_1" data-name="Layer 1" xmlns="http://www.w3.org/2000/svg" viewBox="0 0 500 500"><defs><style>.cls-1{fill:#f1ff01;}</style></defs><polygon points="461.54 230.77 423.08 230.77 384.62 230.77 346.15 230.77 307.69 230.77 269.23 230.77 230.77 230.77 230.77 269.23 269.23 269.23 307.69 269.23 346.15 269.23 384.62 269.23 423.08 269.23 461.54 269.23 500 269.23 500 230.77 461.54 230.77"/><polygon class="cls-1" points="461.54 153.84 461.54 115.38 461.54 76.92 423.08 76.92 423.08 38.46 384.62 38.46 346.15 38.46 346.15 0 307.69 0 269.23 0 230.77 0 192.31 0 153.85 0 153.85 38.46 115.39 38.46 76.92 38.46 76.92 76.92 38.46 76.92 38.46 115.38 38.46 153.84 0 153.84 0 192.31 0 230.77 0 269.23 0 307.69 0 346.15 38.46 346.15 38.46 384.61 38.46 423.07 76.92 423.07 76.92 461.54 115.39 461.54 153.85 461.54 153.85 500 192.31 500 230.77 500 269.23 500 307.69 500 346.15 500 346.15 461.54 384.62 461.54 423.08 461.54 423.08 423.07 461.54 423.07 461.54 384.61 461.54 346.15 500 346.15 500 307.69 500 269.23 461.54 269.23 423.08 269.23 384.62 269.23 346.15 269.23 307.69 269.23 269.23 269.23 230.77 269.23 230.77 230.77 269.23 230.77 307.69 230.77 346.15 230.77 384.62 230.77 423.08 230.77 461.54 230.77 500 230.77 500 192.31 500 153.84 461.54 153.84"/></svg>